# xmcd
#
# Track frame offsets:
#	150
#	32983
#	62802
#	86371
#	105557
#	127000
#	173495
#	202411
#	230515
#	252613
#	281739
#	325337
#
# Disc length: 4405 seconds
#
# Revision: 0
# Processed by: cddbd v1.5.1PL0 Copyright (c) Steve Scherf et al.
# Submitted via: dBpowerAMP V4.0
#
DISCID=b411330c
DTITLE=Seven Moore - Seven Moore
DYEAR=2003
DGENRE=Blues
TTITLE0=Childhood
TTITLE1=Smells Like Rain
TTITLE2=Spring Street
TTITLE3=Another Chance
TTITLE4=Sunday Morning
TTITLE5=Barnyard
TTITLE6=No Time
TTITLE7=Eight Days
TTITLE8=406 Whisnant St.
TTITLE9=Touch
TTITLE10=Drop Your Rock and Roll
TTITLE11=Childhood (reprise)
EXTD=Non-commercial band, blended style
EXTT0=
EXTT1=
EXTT2=
EXTT3=
EXTT4=
EXTT5=
EXTT6=
EXTT7=
EXTT8=
EXTT9=
EXTT10=
EXTT11=
PLAYORDER=
